<?xml version="1.0" standalone="no"?>
<!DOCTYPE svg PUBLIC "-//W3C//DTD SVG 20010904//EN"
 "http://www.w3.org/TR/2001/REC-SVG-20010904/DTD/svg10.dtd">
<svg version="1.0" xmlns="http://www.w3.org/2000/svg"
 width="800.000000pt" height="800.000000pt" viewBox="0 0 800.000000 800.000000"
 preserveAspectRatio="xMidYMid meet">
<metadata>
Created by potrace 1.11, written by Peter Selinger 2001-2013
</metadata>
<g transform="translate(0.000000,800.000000) scale(0.100000,-0.100000)"
fill="#000000" stroke="none">
<path d="M3345 7993 c-56 -10 -67 -16 -84 -44 -17 -27 -17 -36 -6 -77 55 -211
298 -467 743 -786 28 -21 52 -39 52 -40 0 -2 -15 -2 -32 0 -18 2 -71 5 -118 9
-140 9 -333 38 -457 69 -13 3 -31 8 -40 10 -10 2 -97 25 -193 50 -166 43 -293
71 -370 82 -19 3 -46 7 -60 10 -48 10 -305 12 -360 3 -63 -11 -120 -38 -120
-56 0 -23 42 -51 101 -69 l60 -18 -66 -21 c-85 -28 -100 -43 -96 -97 1 -19 71
-45 146 -53 28 -3 61 -7 75 -9 14 -2 46 -7 70 -10 25 -4 92 -15 150 -26 58
-11 119 -22 135 -25 33 -5 279 -59 420 -91 6 -1 48 -12 95 -24 88 -22 119 -31
184 -50 45 -14 42 -13 204 -41 170 -29 558 -32 708 -5 69 13 114 16 113 9 -2
-15 14 -58 52 -133 24 -47 34 -77 27 -81 -10 -7 -134 -34 -198 -44 -144 -22
-466 -26 -570 -7 -180 32 -248 48 -360 82 -202 62 -442 128 -521 144 -13 3
-67 14 -119 25 -52 11 -108 23 -125 25 -16 3 -41 8 -55 10 -137 25 -265 43
-450 63 -89 9 -520 10 -600 0 -121 -14 -197 -25 -265 -39 -27 -5 -63 -12 -80
-15 -123 -21 -409 -120 -550 -190 -242 -121 -476 -327 -449 -397 8 -22 16 -21
191 24 86 22 160 40 166 40 5 0 -9 -20 -32 -45 -124 -135 -180 -305 -100 -305
11 0 67 25 127 57 408 215 724 328 1052 379 25 4 56 9 70 12 38 7 421 10 453
3 25 -6 21 -9 -50 -46 -200 -101 -274 -174 -230 -226 72 -89 347 -204 577
-243 19 -3 46 -8 60 -11 14 -3 45 -8 70 -11 25 -3 52 -7 60 -9 8 -2 51 -7 95
-11 44 -4 89 -8 100 -10 11 -1 34 -3 50 -4 23 -1 16 -5 -28 -16 -59 -14 -117
-42 -117 -56 0 -4 8 -12 18 -17 18 -9 41 -14 162 -28 76 -10 505 -9 615 0 50
5 111 10 138 12 26 2 69 7 95 10 26 3 63 8 82 10 87 10 182 23 223 31 34 7 34
0 2 -38 -38 -45 -65 -102 -55 -117 12 -20 63 -7 150 36 41 21 79 39 84 41 4 3
5 -9 2 -24 -23 -103 -12 -114 50 -53 48 47 49 46 58 -41 7 -69 22 -125 85
-317 28 -84 57 -185 65 -225 8 -40 21 -89 27 -108 16 -46 79 -111 152 -161 33
-21 56 -39 53 -39 -9 0 -163 48 -201 63 -16 6 -34 12 -40 13 -5 1 -55 19 -110
39 -154 56 -304 96 -535 140 -69 13 -237 36 -316 42 -172 14 -524 8 -654 -11
-19 -3 -51 -8 -70 -11 -274 -41 -580 -156 -780 -293 -155 -106 -334 -271 -431
-399 -24 -32 -47 -60 -50 -63 -31 -25 -182 -289 -231 -405 -23 -55 -79 -223
-84 -255 -3 -14 -7 -32 -10 -40 -6 -18 -23 -101 -30 -150 -17 -125 -22 -194
-22 -345 0 -159 18 -314 52 -442 3 -13 8 -31 10 -40 28 -120 131 -346 217
-478 68 -104 114 -160 224 -271 93 -94 298 -254 325 -254 9 0 20 -4 25 -9 6
-5 38 -15 72 -22 77 -16 113 -4 113 37 0 41 -71 159 -142 238 -25 27 -14 32
19 8 38 -27 141 -77 178 -87 17 -5 37 -10 45 -12 8 -2 30 -4 49 -4 101 1 55
118 -116 298 -333 347 -529 742 -537 1076 -8 358 108 725 311 989 l47 62 38
-83 c167 -364 531 -643 953 -732 105 -22 189 -31 282 -33 35 -1 63 -2 63 -4 0
-2 -12 -16 -27 -31 -139 -141 -255 -375 -278 -560 -3 -24 -7 -47 -10 -51 -2
-3 -6 -28 -9 -56 -4 -27 -10 -71 -16 -99 -5 -27 -12 -66 -14 -85 -3 -19 -13
-82 -22 -140 -10 -70 -25 -126 -45 -168 -32 -66 -130 -217 -174 -267 -15 -16
-50 -58 -78 -92 -28 -35 -53 -63 -57 -63 -3 0 -16 -17 -28 -39 -19 -34 -27
-72 -47 -231 -15 -122 -179 -634 -216 -674 -5 -6 -9 -16 -9 -22 0 -7 -25 -65
-55 -130 -30 -64 -61 -142 -68 -173 -17 -71 -13 -180 7 -219 17 -33 56 -62 84
-62 10 0 24 -6 30 -12 17 -17 154 -16 186 1 24 14 76 97 76 123 0 53 203 630
259 735 5 10 19 43 31 73 50 124 181 382 234 463 47 72 82 108 194 204 180
153 194 166 344 313 l128 125 -5 -160 c-3 -88 -7 -185 -10 -215 -6 -75 -16
-172 -20 -191 -2 -9 -6 -40 -10 -69 -10 -78 -13 -93 -64 -282 -12 -43 -21 -96
-21 -118 0 -45 24 -90 47 -90 9 0 36 -7 62 -17 44 -15 49 -15 83 1 21 10 40
26 43 37 4 10 18 22 33 25 63 15 88 62 127 239 15 66 29 130 31 143 8 43 12
67 18 102 3 19 8 49 11 65 7 41 36 233 40 270 2 17 6 55 10 85 11 101 9 95 45
92 19 -2 43 -7 55 -12 35 -13 180 -9 242 7 241 62 364 229 367 499 l1 92 150
47 c82 26 192 67 244 91 103 48 260 149 331 213 25 22 48 41 52 41 10 0 52
-44 103 -108 22 -27 58 -61 80 -75 22 -14 49 -34 60 -44 11 -10 43 -36 70 -58
119 -94 281 -240 420 -380 189 -190 214 -212 425 -379 171 -135 314 -195 453
-190 60 3 75 8 123 39 36 24 59 48 69 73 28 67 11 94 -115 178 -113 76 -250
193 -400 344 -85 85 -165 167 -177 182 -77 95 -215 271 -248 318 -22 30 -42
57 -45 60 -3 3 -17 21 -30 40 -14 19 -46 62 -72 94 -26 33 -46 62 -43 64 2 2
37 5 77 7 40 1 87 5 103 9 53 12 73 58 55 125 -12 46 -60 97 -267 291 -128
119 -144 129 -195 130 -34 0 -38 3 -47 38 -38 138 -85 293 -115 376 l-35 97
35 -5 c58 -10 96 14 131 80 17 32 40 88 53 124 33 99 33 99 69 5 18 -47 55
-129 83 -183 48 -92 163 -275 191 -304 7 -7 19 -22 27 -34 94 -135 334 -356
490 -452 95 -58 266 -132 336 -147 31 -6 84 8 84 23 0 10 -50 86 -87 130 l-27
34 30 -6 c16 -3 64 -13 106 -22 133 -28 142 -3 36 101 -40 39 -107 95 -148
124 -200 140 -248 179 -395 327 -111 112 -113 114 -203 232 -71 95 -141 212
-189 316 l-32 71 29 15 c143 72 279 167 380 262 156 148 280 359 290 493 9
127 -6 208 -56 308 -44 88 -107 150 -200 197 -67 34 -72 35 -189 35 -118 0
-121 -1 -184 -35 -115 -62 -204 -164 -284 -324 l-42 -86 -30 88 c-110 329
-268 628 -407 774 -10 10 -17 18 -15 19 1 0 24 2 50 3 78 4 81 11 82 191 l0
155 25 1 c46 2 121 12 188 25 133 26 350 120 489 211 109 72 229 177 269 236
70 102 98 229 78 362 -10 71 -38 161 -53 175 -3 3 -13 18 -21 34 -28 54 -136
150 -216 193 -78 41 -91 45 -189 63 -101 17 -316 -8 -349 -41 -6 -5 -16 -9
-23 -9 -23 0 -190 -107 -286 -183 -171 -136 -520 -384 -577 -410 -8 -4 -28
-16 -45 -27 -67 -44 -62 -46 -160 54 -204 206 -374 332 -545 402 -75 31 -140
42 -140 24 0 -6 16 -41 36 -76 20 -35 33 -64 30 -64 -3 0 -47 22 -98 49 -236
126 -554 235 -768 265 -19 2 -55 7 -80 11 -53 7 -256 13 -285 8z m3333 -345
c26 -6 68 -25 95 -41 l47 -29 -21 -36 c-89 -148 -252 -296 -464 -419 -27 -15
-189 -97 -195 -98 -3 -1 -32 -14 -64 -28 -33 -15 -60 -26 -61 -25 -2 2 -19 39
-39 82 -20 44 -55 104 -78 133 -49 64 -61 45 122 184 256 196 332 242 445 270
84 21 149 23 213 7z m339 -1919 c48 -100 29 -259 -48 -389 -76 -129 -205 -267
-358 -384 -49 -38 -65 -46 -72 -35 -10 18 -2 127 16 205 27 116 118 317 195
429 58 84 206 209 239 203 9 -2 21 -15 28 -29z m-3182 -1149 c157 -19 217 -28
280 -41 98 -20 221 -50 289 -70 38 -12 76 -22 85 -24 9 -2 43 -11 76 -20 158
-44 444 -108 530 -119 31 -3 47 -13 71 -42 l32 -37 -82 -81 c-45 -45 -104
-106 -130 -136 -73 -84 -176 -170 -284 -236 -126 -78 -199 -110 -423 -188
-201 -70 -250 -88 -352 -135 -37 -17 -69 -31 -71 -31 -2 0 -37 -19 -78 -42
-40 -23 -80 -41 -88 -41 -19 2 -231 120 -325 181 -160 105 -295 214 -413 332
-75 74 -86 82 -92 65 -4 -11 -1 -37 6 -58 11 -32 11 -36 -1 -30 -59 33 -415
423 -415 455 0 12 101 75 216 134 92 48 234 100 324 120 19 4 37 8 40 9 6 1
144 25 180 31 14 2 63 6 110 10 47 4 86 7 87 8 8 7 353 -5 428 -14z"/>
</g>
</svg>
